<svg id="bg-19" xmlns="http://www.w3.org/2000/svg" width="330.395" height="412.422" viewBox="0 0 330.395 412.422">
  <path id="Pfad_374" data-name="Pfad 374" d="M661.481,690.011c2.641-6.334,6.736-15.307,11.571-19.028,12.447-9.554,42.064-26.09,93.866.992,58.062,30.35,59.7-25.335,116.7-29.178,41.059-2.76,85.6,9.094,95.262,31.791,9.083,21.3,1.4,73.214-34.385,69.551-64.48-6.6-60.251,8.757-122.151,35.285-63.344,27.135-76.892-43.139-136.349-22.3C646.7,770.894,649.453,719.02,661.481,690.011Z" transform="translate(-651.971 -379.26)" fill="rgba(198,198,255,0.49)"/>
  <path id="Pfad_375" data-name="Pfad 375" d="M511.331,89.05l-68.6,178.356h4.323Z" transform="translate(-234.44 -42.048)" fill="#e9edfb"/>
  <path id="Pfad_376" data-name="Pfad 376" d="M1222.688,162.62s-3.795,23.789-.6,30.286A34.572,34.572,0,0,0,1222.688,162.62Z" transform="translate(-951.718 -145.904)" fill="#e9edfb"/>
  <path id="Pfad_377" data-name="Pfad 377" d="M1191.6,174.89s6.593,20.084,12.245,23.974C1203.845,198.864,1205.487,185.161,1191.6,174.89Z" transform="translate(-932.053 -151.697)" fill="#e9edfb"/>
  <path id="Pfad_378" data-name="Pfad 378" d="M1243.043,151.75s-19.4,25.43-17.888,35.01C1225.155,186.76,1245.777,175.94,1243.043,151.75Z" transform="translate(-953.731 -140.771)" fill="#e9edfb"/>
  <path id="Pfad_379" data-name="Pfad 379" d="M1175.05,191.23s6.418,25.7,8.646,32.931c.528,1.7,1.056,2.475,1.583,2.613,1.584.406,3.067-4.983,3.41-8.72C1189.158,213.077,1186.678,197.632,1175.05,191.23Z" transform="translate(-923.542 -159.413)" fill="#e9edfb"/>
  <path id="Pfad_380" data-name="Pfad 380" d="M1195.066,257.754s-.058-.132-.047.079c.105,2.286.776,16.162.237,18.511-.591,2.57,1.526-3.283,1.526-3.283Z" transform="translate(-933.065 -191.944)" fill="#e9edfb"/>
  <path id="Pfad_381" data-name="Pfad 381" d="M1213.836,219.784s-.232-.127-.211-.048c.586,2.227-.211,11.364-.749,13.723-.591,2.565,1.056-2.027,1.056-2.027Z" transform="translate(-947.912 -172.861)" fill="#e9edfb"/>
  <path id="Pfad_382" data-name="Pfad 382" d="M1164,210.26s1.409,33.48,5.241,41.17c4.882,9.8,7.648-7.97,7.147-11.29S1174.731,217.729,1164,210.26Z" transform="translate(-917.702 -168.398)" fill="#e9edfb"/>
  <path id="Pfad_383" data-name="Pfad 383" d="M1213.836,219.784s-.232-.127-.211-.048c.586,2.227-.211,11.364-.749,13.723-.591,2.565,1.056-2.027,1.056-2.027Z" transform="translate(-947.912 -172.861)" fill="#e9edfb"/>
  <path id="Pfad_384" data-name="Pfad 384" d="M1179.952,291.537s-.063-.153-.053.085c.1,2.549.744,18.014.2,20.632-.6,2.866,1.541-3.658,1.541-3.658Z" transform="translate(-925.217 -208.204)" fill="#e9edfb"/>
  <path id="Pfad_385" data-name="Pfad 385" d="M1127.23,234.56s9.5,38.362,15.18,46.607c7.194,10.493,7.822-11.084,6.519-14.837S1139.629,241.406,1127.23,234.56Z" transform="translate(-899.231 -179.872)" fill="#e9edfb"/>
  <path id="Pfad_386" data-name="Pfad 386" d="M1163.3,327.119s-.174-.649-.164-.385c.111,2.845,2.143,18.326,1.526,21.25-.67,3.193,1.715-3.521,1.715-3.521Z" transform="translate(-916.621 -225.138)" fill="#e9edfb"/>
  <path id="Pfad_387" data-name="Pfad 387" d="M1106.08,267.91s12.668,39.866,18.326,48.649c7.178,11.174,6.767-13.021,4.782-19.688C1127.151,290.047,1118.473,275.2,1106.08,267.91Z" transform="translate(-888.338 -196.959)" fill="#e9edfb"/>
  <path id="Pfad_388" data-name="Pfad 388" d="M1148.1,364.572s-.174-.691-.164-.412c.111,3.035,2.111,19.529,1.5,22.638-.675,3.4,1.716-3.753,1.716-3.753Z" transform="translate(-908.73 -243.155)" fill="#e9edfb"/>
  <path id="Pfad_389" data-name="Pfad 389" d="M1091.58,304.65s12.668,39.866,18.321,48.649c7.183,11.179,6.766-13.021,4.782-19.682C1112.651,326.787,1103.973,311.95,1091.58,304.65Z" transform="translate(-880.768 -214.666)" fill="#e9edfb"/>
  <path id="Pfad_390" data-name="Pfad 390" d="M1133.6,401.362s-.179-.691-.169-.412c.111,3.03,2.111,20.057,1.5,23.182-.676,3.4,2.037-4.418,2.037-4.418Z" transform="translate(-901.218 -260.864)" fill="#e9edfb"/>
  <path id="Pfad_391" data-name="Pfad 391" d="M1066.9,336.66s16.779,41.328,22.422,50.106c7.178,11.179,5.579-16.267,3.595-22.934C1090.884,357.008,1079.293,343.955,1066.9,336.66Z" transform="translate(-868.092 -230.1)" fill="#e9edfb"/>
  <path id="Pfad_392" data-name="Pfad 392" d="M1115.2,436.031s-.132-.375-.121-.037c.1,3.647,2.839,23.926,2.206,27.674-.686,4.1,2.507-5.2,2.507-5.2Z" transform="translate(-891.764 -277.727)" fill="#e9edfb"/>
  <path id="Pfad_393" data-name="Pfad 393" d="M1035.1,376.74a203.869,203.869,0,0,0,15.539,27.447c5.864,8.445,13.724,15.048,16.679,18.152,9.337,9.833,1.394-15.861-1.906-22.084C1062.029,393.894,1048.8,381.939,1035.1,376.74Z" transform="translate(-852.006 -249.387)" fill="#e9edfb"/>
  <path id="Pfad_394" data-name="Pfad 394" d="M1102.991,466.251s-.132-.375-.121-.037c.1,3.652,3.009,25.562,2.2,29.289-.19.882,2.692-6.651,2.692-6.651Z" transform="translate(-885.433 -292.28)" fill="#e9edfb"/>
  <path id="Pfad_395" data-name="Pfad 395" d="M1020.16,415.71a236.778,236.778,0,0,0,17.36,30.941c6.524,9.5,15.222,17.012,18.474,20.516,10.345,11.116,1.325-17.761-2.365-24.771C1049.86,435.213,1035.224,421.669,1020.16,415.71Z" transform="translate(-844.418 -268.211)" fill="#e9edfb"/>
  <path id="Pfad_396" data-name="Pfad 396" d="M988.51,479.723s17.571,10.345,29.98,20.089c14.563,11.433,17.144,12.731,21.477,14.14,13.724,4.449-6.862-23.33-13.079-27.373C1020.522,482.436,1004.075,477.981,988.51,479.723Z" transform="translate(-828.709 -298.712)" fill="#e9edfb"/>
  <path id="Pfad_397" data-name="Pfad 397" d="M1095.968,517.576a5.042,5.042,0,0,0-.248-.776c.132,1.9,2.972,10.583,2.2,12.525-.185.459,1.452-3.373,1.452-3.373Z" transform="translate(-881.648 -316.552)" fill="#e9edfb"/>
  <path id="Pfad_398" data-name="Pfad 398" d="M1091,542.861s-.269-.465-.253-.38c.148.94,3.072,5.231,2.312,6.186-.179.227,1.425-1.663,1.425-1.663Z" transform="translate(-879.073 -328.844)" fill="#e9edfb"/>
  <path id="Pfad_399" data-name="Pfad 399" d="M1236.66,180.63s-11.364,21.6-16.8,26.317C1219.86,206.947,1223.1,192.965,1236.66,180.63Z" transform="translate(-951.27 -154.408)" fill="#e9edfb"/>
  <path id="Pfad_400" data-name="Pfad 400" d="M1244.646,200.4s-15,15.486-20.316,17.265C1224.33,217.665,1231.176,205.377,1244.646,200.4Z" transform="translate(-953.381 -163.743)" fill="#e9edfb"/>
  <path id="Pfad_401" data-name="Pfad 401" d="M1228.994,161.52s-3.695,27.383-9.939,35.232C1219.055,196.752,1213.8,181.641,1228.994,161.52Z" transform="translate(-950.476 -145.384)" fill="#e9edfb"/>
  <path id="Pfad_402" data-name="Pfad 402" d="M1239.4,219.13s-18.073,20.39-23.388,26.006c-1.251,1.32-2,1.842-2.365,1.81-1.109-.1,1.129-5.162,3.051-8.482C1219.262,234.041,1229.37,221.4,1239.4,219.13Z" transform="translate(-948.197 -172.587)" fill="#e9edfb"/>
  <path id="Pfad_403" data-name="Pfad 403" d="M1204.224,270.975s.111-.1,0,.079c-1.351,1.942-9.569,13.723-10.6,15.914-1.129,2.386,1.013-3.262,1.013-3.262Z" transform="translate(-932.837 -198.304)" fill="#e9edfb"/>
  <path id="Pfad_404" data-name="Pfad 404" d="M1217.8,232.688s.2-.042.143.026c-1.583,1.752-6.334,9.865-7.342,12.045-1.13,2.386.56-2.043.56-2.043Z" transform="translate(-946.715 -178.983)" fill="#e9edfb"/>
  <path id="Pfad_405" data-name="Pfad 405" d="M1231.435,238.65s-19.714,28.5-26.18,34.081c-8.234,7.094.29-9.021,2.444-11.744S1221.311,242.1,1231.435,238.65Z" transform="translate(-942.714 -181.804)" fill="#e9edfb"/>
  <path id="Pfad_406" data-name="Pfad 406" d="M1217.8,232.688s.2-.042.143.026c-1.583,1.752-6.334,9.865-7.342,12.045-1.13,2.386.56-2.043.56-2.043Z" transform="translate(-946.715 -178.983)" fill="#e9edfb"/>
  <path id="Pfad_407" data-name="Pfad 407" d="M1192.332,304.331s.116-.116,0,.09c-1.5,2.169-10.6,15.338-11.781,17.756-1.288,2.639,1.224-3.594,1.224-3.594Z" transform="translate(-926.105 -214.357)" fill="#e9edfb"/>
  <path id="Pfad_408" data-name="Pfad 408" d="M1230.033,269.91s-26.95,30.455-34.731,35.987c-9.9,7.046,1.958-11.76,4.793-14.631S1219.319,272.354,1230.033,269.91Z" transform="translate(-937.845 -197.873)" fill="#e9edfb"/>
  <path id="Pfad_409" data-name="Pfad 409" d="M1180.368,339.688s.464-.528.306-.285c-1.674,2.423-11.543,15.217-12.863,17.914-1.436,2.945,1.056-3.521,1.056-3.521Z" transform="translate(-919.517 -231.218)" fill="#e9edfb"/>
  <path id="Pfad_410" data-name="Pfad 410" d="M1220.41,304.62s-29.558,30.867-37.618,36.868c-10.282,7.638,3.631-13.132,8.5-18.331C1196.268,317.831,1209.447,307.46,1220.41,304.62Z" transform="translate(-932.022 -214.594)" fill="#e9edfb"/>
  <path id="Pfad_411" data-name="Pfad 411" d="M1166.845,376.348s.486-.528.322-.306c-1.773,2.586-12.208,16.257-13.634,19.118-1.552,3.125,1.177-3.721,1.177-3.721Z" transform="translate(-912.126 -248.858)" fill="#e9edfb"/>
  <path id="Pfad_412" data-name="Pfad 412" d="M1207.625,340.4s-29.558,30.867-37.623,36.868c-10.282,7.638,3.631-13.132,8.5-18.331C1183.483,353.611,1196.662,343.234,1207.625,340.4Z" transform="translate(-925.982 -231.826)" fill="#e9edfb"/>
  <path id="Pfad_413" data-name="Pfad 413" d="M1153.807,412.127s.491-.528.327-.306c-1.779,2.586-12.515,16.732-13.94,19.593-1.552,3.125,1.378-4.386,1.378-4.386Z" transform="translate(-905.214 -266.078)" fill="#e9edfb"/>
  <path id="Pfad_414" data-name="Pfad 414" d="M1200.716,374.94s-32.625,30.978-40.69,36.979c-10.282,7.638,6.128-15.608,10.989-20.8C1175.983,385.792,1189.759,377.769,1200.716,374.94Z" transform="translate(-920.667 -248.461)" fill="#e9edfb"/>
  <path id="Pfad_415" data-name="Pfad 415" d="M1141.555,447.195s.28-.29.084,0c-2.111,3.125-15.1,19.857-16.89,23.277-1.937,3.726,1.583-5.2,1.583-5.2Z" transform="translate(-897.313 -283.092)" fill="#e9edfb"/>
  <path id="Pfad_416" data-name="Pfad 416" d="M1193.133,418.43a304.585,304.585,0,0,1-24.106,19.36c-8,5.637-16.088,9.152-19.466,11.005-10.709,5.869,8.2-14.082,13.544-18.532C1168.557,425.7,1182.619,419.09,1193.133,418.43Z" transform="translate(-915.721 -269.358)" fill="#e9edfb"/>
  <path id="Pfad_417" data-name="Pfad 417" d="M1130.882,476.7s.285-.285.09,0c-2.111,3.125-16.114,21.224-17.777,24.665-.391.818,2.275-6.492,2.275-6.492Z" transform="translate(-891.598 -297.296)" fill="#e9edfb"/>
  <path id="Pfad_418" data-name="Pfad 418" d="M1174.216,456.26s-13.723,12.346-27.072,21.852c-8.973,6.381-18.015,10.424-21.8,12.536-11.992,6.7,9.316-15.7,15.307-20.722C1146.805,464.784,1162.519,457.178,1174.216,456.26Z" transform="translate(-898.644 -287.604)" fill="#e9edfb"/>
  <path id="Pfad_419" data-name="Pfad 419" d="M1157.511,515.6a269.663,269.663,0,0,0-27.9,8.973c-14.494,5.806-16.653,6.2-19.841,6.2-10.087,0,16.985-18.215,22.7-19.967C1138.325,508.986,1149.911,509.741,1157.511,515.6Z" transform="translate(-890.97 -313.318)" fill="#e9edfb"/>
  <path id="Pfad_420" data-name="Pfad 420" d="M1114.31,522.959s.681-.744.57-.6c-1.145,1.583-7.622,8.3-8.292,10.2-.158.443,1.1-3.32,1.1-3.32Z" transform="translate(-887.566 -319.199)" fill="#e9edfb"/>
  <path id="Pfad_421" data-name="Pfad 421" d="M1105.922,546.2s.411-.333.359-.259c-.618.765-4.656,3.653-4.75,4.692,0,.248.158-1.837.158-1.837Z" transform="translate(-884.73 -330.495)" fill="#e9edfb"/>
  <path id="Pfad_422" data-name="Pfad 422" d="M42.84,180.37l71.1,178.356h-4.476Z" transform="translate(-20.228 -87.86)" fill="#e9edfb"/>
  <path id="Pfad_423" data-name="Pfad 423" d="M689.241,253.94s3.932,23.789.623,30.286A33.5,33.5,0,0,1,689.241,253.94Z" transform="translate(-667.252 -190.16)" fill="#e9edfb"/>
  <path id="Pfad_424" data-name="Pfad 424" d="M714.751,266.21s-6.835,20.084-12.668,23.974C702.057,290.184,700.357,276.481,714.751,266.21Z" transform="translate(-674.837 -196.047)" fill="#e9edfb"/>
  <path id="Pfad_425" data-name="Pfad 425" d="M655.948,243.07s20.1,25.43,18.537,35.01C674.485,278.08,653.114,267.26,655.948,243.07Z" transform="translate(-652.966 -183.891)" fill="#e9edfb"/>
  <path id="Pfad_426" data-name="Pfad 426" d="M730.583,282.55s-6.656,25.7-8.973,32.931c-.528,1.7-1.108,2.475-1.663,2.613-1.652.406-3.167-4.983-3.531-8.72C715.963,304.4,718.533,288.947,730.583,282.55Z" transform="translate(-681.617 -203.953)" fill="#e9edfb"/>
  <path id="Pfad_427" data-name="Pfad 427" d="M720.919,349.074s.063-.132.053.079c-.111,2.285-.808,16.157-.248,18.511.618,2.57-1.583-3.283-1.583-3.283Z" transform="translate(-682.926 -235.885)" fill="#e9edfb"/>
  <path id="Pfad_428" data-name="Pfad 428" d="M702.005,311.1s.248-.132.222-.048c-.607,2.227.216,11.364.776,13.723.612,2.571-1.093-2.021-1.093-2.021Z" transform="translate(-674.79 -217.578)" fill="#e9edfb"/>
  <path id="Pfad_429" data-name="Pfad 429" d="M743.235,301.58s-1.457,33.474-5.431,41.181c-5.062,9.8-7.917-7.97-7.389-11.3S732.109,309.049,743.235,301.58Z" transform="translate(-688.22 -213.153)" fill="#e9edfb"/>
  <path id="Pfad_430" data-name="Pfad 430" d="M702.005,311.1s.248-.132.222-.048c-.607,2.227.216,11.364.776,13.723.612,2.571-1.093-2.021-1.093-2.021Z" transform="translate(-674.79 -217.578)" fill="#e9edfb"/>
  <path id="Pfad_431" data-name="Pfad 431" d="M736.581,382.857s.063-.153.058.084c-.106,2.549-.776,18.009-.206,20.632.618,2.866-1.583-3.658-1.583-3.658Z" transform="translate(-690.344 -252.149)" fill="#e9edfb"/>
  <path id="Pfad_432" data-name="Pfad 432" d="M772.241,325.88s-9.876,38.362-15.734,46.607c-7.453,10.493-8.1-11.084-6.751-14.837S759.388,332.726,772.241,325.88Z" transform="translate(-697.859 -224.887)" fill="#e9edfb"/>
  <path id="Pfad_433" data-name="Pfad 433" d="M752.473,418.439s.185-.649.174-.385c-.122,2.845-2.222,18.326-1.583,21.25.7,3.193-1.773-3.521-1.773-3.521Z" transform="translate(-697.162 -269.084)" fill="#e9edfb"/>
  <path id="Pfad_434" data-name="Pfad 434" d="M792.176,359.23s-13.138,39.866-19,48.649c-7.442,11.174-7.015-13.021-4.956-19.688C770.34,381.367,779.334,366.524,792.176,359.23Z" transform="translate(-711.303 -240.972)" fill="#e9edfb"/>
  <path id="Pfad_435" data-name="Pfad 435" d="M768.242,455.932s.185-.691.174-.412c-.116,3.035-2.2,19.529-1.557,22.638.7,3.4-1.779-3.753-1.779-3.753Z" transform="translate(-704.618 -287.123)" fill="#e9edfb"/>
  <path id="Pfad_436" data-name="Pfad 436" d="M807.218,396s-13.143,39.866-19,48.649c-7.442,11.179-7.01-13.021-4.956-19.682C785.377,418.121,794.376,403.284,807.218,396Z" transform="translate(-719.159 -258.693)" fill="#e9edfb"/>
  <path id="Pfad_437" data-name="Pfad 437" d="M782.984,492.682s.179-.691.169-.412c-.116,3.03-2.19,20.057-1.552,23.182.7,3.4-2.111-4.418-2.111-4.418Z" transform="translate(-712.336 -304.814)" fill="#e9edfb"/>
  <path id="Pfad_438" data-name="Pfad 438" d="M829.7,428s-17.386,41.323-23.224,50.106c-7.442,11.179-5.806-16.267-3.726-22.934C804.848,448.337,816.861,435.284,829.7,428Z" transform="translate(-729.177 -274.125)" fill="#e9edfb"/>
  <path id="Pfad_439" data-name="Pfad 439" d="M800.956,527.351s.137-.375.127-.037c-.1,3.647-2.94,23.921-2.291,27.674.713,4.1-2.592-5.2-2.592-5.2Z" transform="translate(-726.177 -321.688)" fill="#e9edfb"/>
  <path id="Pfad_440" data-name="Pfad 440" d="M854.395,468.06a201.6,201.6,0,0,1-16.109,27.447c-6.07,8.445-14.251,15.048-17.281,18.152-9.68,9.833-1.446-15.861,1.974-22.084C826.483,485.214,840.2,473.259,854.395,468.06Z" transform="translate(-737.49 -293.39)" fill="#e9edfb"/>
  <path id="Pfad_441" data-name="Pfad 441" d="M813.446,557.571s.132-.375.121-.037c-.1,3.653-3.114,25.562-2.275,29.289.2.882-2.792-6.651-2.792-6.651Z" transform="translate(-732.569 -336.242)" fill="#e9edfb"/>
  <path id="Pfad_442" data-name="Pfad 442" d="M866.129,507a233.1,233.1,0,0,1-17.993,30.941c-6.756,9.5-15.771,17.012-19.155,20.516-10.725,11.116-1.378-17.761,2.449-24.771C835.346,526.529,850.516,512.986,866.129,507Z" transform="translate(-741.564 -312.215)" fill="#e9edfb"/>
  <path id="Pfad_443" data-name="Pfad 443" d="M884.618,571.043s-18.2,10.345-31.073,20.089c-15.09,11.433-17.761,12.731-22.253,14.14-14.251,4.45,7.12-23.33,13.554-27.373C851.444,573.756,868.482,569.3,884.618,571.043Z" transform="translate(-743.358 -342.686)" fill="#e9edfb"/>
  <path id="Pfad_444" data-name="Pfad 444" d="M821.846,608.871s.269-.945.259-.771c-.137,1.9-3.083,10.556-2.275,12.525.19.459-1.51-3.373-1.51-3.373Z" transform="translate(-737.641 -360.46)" fill="#e9edfb"/>
  <path id="Pfad_445" data-name="Pfad 445" d="M826.94,634.181s.275-.465.264-.38c-.158.94-3.167,5.231-2.4,6.186.185.227-1.478-1.663-1.478-1.663Z" transform="translate(-740.243 -372.759)" fill="#e9edfb"/>
  <path id="Pfad_446" data-name="Pfad 446" d="M663.88,272s11.776,21.6,17.418,26.317C681.288,298.291,677.952,284.3,663.88,272Z" transform="translate(-656.834 -198.842)" fill="#e9edfb"/>
  <path id="Pfad_447" data-name="Pfad 447" d="M652.34,291.72s15.539,15.486,21.055,17.265C673.395,308.985,666.3,296.7,652.34,291.72Z" transform="translate(-651.385 -208.3)" fill="#e9edfb"/>
  <path id="Pfad_448" data-name="Pfad 448" d="M677.37,252.84s3.821,27.383,10.3,35.232C687.668,288.072,693.11,272.982,677.37,252.84Z" transform="translate(-663.203 -189.645)" fill="#e9edfb"/>
  <path id="Pfad_449" data-name="Pfad 449" d="M652.46,310.45s18.732,20.39,24.243,26.006c1.293,1.32,2.064,1.842,2.449,1.81,1.151-.1-1.172-5.162-3.167-8.482C673.33,325.361,662.858,312.72,652.46,310.45Z" transform="translate(-651.441 -217.355)" fill="#e9edfb"/>
  <path id="Pfad_450" data-name="Pfad 450" d="M702.9,362.266s-.111-.1,0,.084c1.4,1.942,9.918,13.723,10.989,15.914,1.166,2.386-1.056-3.267-1.056-3.267Z" transform="translate(-675.233 -242.225)" fill="#e9edfb"/>
  <path id="Pfad_451" data-name="Pfad 451" d="M691.857,323.988s-.211-.042-.148.026c1.641,1.752,6.54,9.865,7.611,12.045,1.167,2.386-.581-2.043-.581-2.043Z" transform="translate(-669.968 -223.8)" fill="#e9edfb"/>
  <path id="Pfad_452" data-name="Pfad 452" d="M657.29,330s20.432,28.5,27.135,34.066c8.535,7.094-.3-9.021-2.534-11.744S667.809,333.431,657.29,330Z" transform="translate(-653.722 -226.804)" fill="#e9edfb"/>
  <path id="Pfad_453" data-name="Pfad 453" d="M691.857,323.988s-.211-.042-.148.026c1.641,1.752,6.54,9.865,7.611,12.045,1.167,2.386-.581-2.043-.581-2.043Z" transform="translate(-669.968 -223.8)" fill="#e9edfb"/>
  <path id="Pfad_454" data-name="Pfad 454" d="M714.082,395.65s-.121-.116,0,.084c1.552,2.175,10.984,15.344,12.209,17.761,1.335,2.639-1.267-3.594-1.267-3.594Z" transform="translate(-680.512 -258.295)" fill="#e9edfb"/>
  <path id="Pfad_455" data-name="Pfad 455" d="M650.53,361.23s27.932,30.45,35.992,35.987c10.261,7.046-2.032-11.76-4.972-14.631S661.63,363.674,650.53,361.23Z" transform="translate(-650.53 -241.853)" fill="#e9edfb"/>
  <path id="Pfad_456" data-name="Pfad 456" d="M725.4,431.038s-.48-.528-.322-.285c1.731,2.423,11.966,15.217,13.328,17.914,1.494,2.945-1.082-3.521-1.082-3.521Z" transform="translate(-685.716 -275.172)" fill="#e9edfb"/>
  <path id="Pfad_457" data-name="Pfad 457" d="M658,395.94s30.614,30.867,38.985,36.868c10.657,7.638-3.763-13.132-8.8-18.331C683.013,409.167,669.353,398.774,658,395.94Z" transform="translate(-654.057 -258.576)" fill="#e9edfb"/>
  <path id="Pfad_458" data-name="Pfad 458" d="M738.671,467.677s-.5-.528-.333-.306c1.837,2.586,12.668,16.257,14.125,19.118,1.61,3.125-1.214-3.721-1.214-3.721Z" transform="translate(-691.975 -292.805)" fill="#e9edfb"/>
  <path id="Pfad_459" data-name="Pfad 459" d="M671.24,431.72s30.614,30.867,38.985,36.868c10.657,7.638-3.763-13.132-8.8-18.331C696.259,444.931,682.6,434.554,671.24,431.72Z" transform="translate(-660.309 -275.808)" fill="#e9edfb"/>
  <path id="Pfad_460" data-name="Pfad 460" d="M751.934,503.447s-.528-.528-.333-.306c1.837,2.586,12.969,16.727,14.441,19.593,1.583,3.125-1.425-4.386-1.425-4.386Z" transform="translate(-698.974 -310.02)" fill="#e9edfb"/>
  <path id="Pfad_461" data-name="Pfad 461" d="M675.89,466.26s33.839,31,42.189,36.979c10.651,7.638-6.334-15.608-11.39-20.807C701.526,477.112,687.249,469.089,675.89,466.26Z" transform="translate(-662.504 -292.443)" fill="#e9edfb"/>
  <path id="Pfad_462" data-name="Pfad 462" d="M761.755,538.515s-.3-.29-.09,0c2.2,3.125,15.645,19.857,17.481,23.272,2.011,3.732-1.62-5.194-1.62-5.194Z" transform="translate(-708.407 -327.042)" fill="#e9edfb"/>
  <path id="Pfad_463" data-name="Pfad 463" d="M681.21,509.75a313.837,313.837,0,0,0,24.982,19.36c8.287,5.637,16.669,9.147,20.173,11.005,11.084,5.869-8.5-14.082-14.04-18.532C706.656,517.023,692.088,510.41,681.21,509.75Z" transform="translate(-665.016 -313.324)" fill="#e9edfb"/>
  <path id="Pfad_464" data-name="Pfad 464" d="M772.495,568.017s-.3-.285-.09,0c2.2,3.125,16.7,21.224,18.421,24.665.406.818-2.359-6.492-2.359-6.492Z" transform="translate(-714.011 -341.248)" fill="#e9edfb"/>
  <path id="Pfad_465" data-name="Pfad 465" d="M695.52,547.58s14.209,12.362,28.054,21.862c9.3,6.381,18.674,10.424,22.6,12.536,12.414,6.688-9.654-15.7-15.877-20.733C723.922,556.1,707.628,548.514,695.52,547.58Z" transform="translate(-671.773 -331.58)" fill="#e9edfb"/>
  <path id="Pfad_466" data-name="Pfad 466" d="M715.15,606.925a287.228,287.228,0,0,1,28.914,8.973c15.022,5.806,17.26,6.2,20.585,6.2,10.451,0-17.6-18.215-23.52-19.967C735.038,600.306,723.03,601.06,715.15,606.925Z" transform="translate(-681.042 -357.261)" fill="#e9edfb"/>
  <path id="Pfad_467" data-name="Pfad 467" d="M798.57,614.3a7.724,7.724,0,0,0-.57-.6c1.193,1.583,7.917,8.3,8.6,10.192.164.449-1.145-3.315-1.145-3.315Z" transform="translate(-727.185 -363.139)" fill="#e9edfb"/>
  <path id="Pfad_468" data-name="Pfad 468" d="M810.535,637.51s-.427-.327-.37-.259c.639.771,4.819,3.658,4.951,4.7.026.248-.164-1.837-.164-1.837Z" transform="translate(-733.429 -374.403)" fill="#e9edfb"/>
  <path id="Pfad_469" data-name="Pfad 469" d="M539.593,252.77,473.7,387.945l3.389.3Z" transform="translate(-255.586 -122.556)" fill="#bac5f4"/>
  <path id="Pfad_470" data-name="Pfad 470" d="M1251.121,338.81s-4.592,18.395-2.528,23.7A27.2,27.2,0,0,0,1251.121,338.81Z" transform="translate(-964.585 -230.987)" fill="#bac5f4"/>
  <path id="Pfad_471" data-name="Pfad 471" d="M1227.33,346.21s3.806,16.194,7.976,19.624C1235.305,365.834,1237.522,355.2,1227.33,346.21Z" transform="translate(-954.797 -234.528)" fill="#bac5f4"/>
  <path id="Pfad_472" data-name="Pfad 472" d="M1267.158,332.65s-16.932,18.622-16.4,26.233C1250.759,358.883,1267.66,351.8,1267.158,332.65Z" transform="translate(-965.854 -228.034)" fill="#bac5f4"/>
  <path id="Pfad_473" data-name="Pfad 473" d="M1213.25,357.89s3.288,20.585,4.539,26.391c.3,1.367.671,2.016,1.082,2.159,1.224.428,2.739-3.695,3.262-6.6C1222.825,375.978,1221.933,363.7,1213.25,357.89Z" transform="translate(-948.149 -240.195)" fill="#bac5f4"/>
  <path id="Pfad_474" data-name="Pfad 474" d="M1223.363,411.408s-.037-.111-.047.058c-.069,1.8-.486,12.726-1.056,14.531-.639,1.974,1.425-2.47,1.425-2.47Z" transform="translate(-952.346 -265.855)" fill="#bac5f4"/>
  <path id="Pfad_475" data-name="Pfad 475" d="M1240.839,382.938s-.174-.116-.164-.048c.306,1.784-.934,8.894-1.52,10.7-.639,1.974.966-1.515.966-1.515Z" transform="translate(-960.31 -252.122)" fill="#bac5f4"/>
  <path id="Pfad_476" data-name="Pfad 476" d="M1203.043,372.06s-1.172,26.349,1.314,32.646c3.167,8.012,6.535-5.732,6.366-8.371S1210.95,378.647,1203.043,372.06Z" transform="translate(-942.344 -247.054)" fill="#bac5f4"/>
  <path id="Pfad_477" data-name="Pfad 477" d="M1240.839,382.938s-.174-.116-.164-.048c.306,1.784-.934,8.894-1.52,10.7-.639,1.974.966-1.515.966-1.515Z" transform="translate(-960.31 -252.122)" fill="#bac5f4"/>
  <path id="Pfad_478" data-name="Pfad 478" d="M1209.077,436.875s-.042-.121-.047.063c-.095,2.006-.639,14.172-1.246,16.188-.665,2.206,1.452-2.766,1.452-2.766Z" transform="translate(-944.618 -278.116)" fill="#bac5f4"/>
  <path id="Pfad_479" data-name="Pfad 479" d="M1172.82,388.62s4.861,30.724,8.736,37.57c4.93,8.714,6.862-8.165,6.117-11.19S1182.073,394.832,1172.82,388.62Z" transform="translate(-922.477 -255.06)" fill="#bac5f4"/>
  <path id="Pfad_480" data-name="Pfad 480" d="M1194.458,463.675s-.095-.528-.106-.311c-.1,2.238.438,14.51-.243,16.764-.739,2.46,1.583-2.639,1.583-2.639Z" transform="translate(-932.516 -290.859)" fill="#bac5f4"/>
  <path id="Pfad_481" data-name="Pfad 481" d="M1154,413.33s7.236,32.118,11.084,39.386c4.872,9.247,6.186-9.749,5.083-15.111C1169,432.115,1163.205,419.891,1154,413.33Z" transform="translate(-912.785 -266.975)" fill="#bac5f4"/>
  <path id="Pfad_482" data-name="Pfad 482" d="M1179.894,492s-.1-.554-.106-.338c-.116,2.386.338,15.449-.354,17.851-.76,2.639,1.583-2.824,1.583-2.824Z" transform="translate(-924.898 -304.486)" fill="#bac5f4"/>
  <path id="Pfad_483" data-name="Pfad 483" d="M1140.11,441.15s7.231,32.118,11.084,39.386c4.872,9.253,6.191-9.749,5.088-15.106C1155.127,459.935,1149.326,447.716,1140.11,441.15Z" transform="translate(-905.55 -280.376)" fill="#bac5f4"/>
  <path id="Pfad_484" data-name="Pfad 484" d="M1166,519.834s-.09-.528-.1-.333c-.121,2.386.29,15.877-.4,18.278-.76,2.639,1.895-3.325,1.895-3.325Z" transform="translate(-917.694 -317.886)" fill="#bac5f4"/>
  <path id="Pfad_485" data-name="Pfad 485" d="M1118.59,464.57s10.345,33.538,14.172,40.811c4.872,9.248,5.479-12.377,4.376-17.74C1136.008,482.152,1127.806,471.131,1118.59,464.57Z" transform="translate(-894.505 -291.668)" fill="#bac5f4"/>
  <path id="Pfad_486" data-name="Pfad 486" d="M1149.442,545.76s-.079-.3-.095-.037c-.169,2.866.6,18.949-.148,21.846-.813,3.167,2.317-3.911,2.317-3.911Z" transform="translate(-909.264 -330.507)" fill="#bac5f4"/>
  <path id="Pfad_487" data-name="Pfad 487" d="M1090.93,493.83a161.661,161.661,0,0,0,10.319,22.591c4.022,7,9.744,12.731,11.844,15.365,6.656,8.34,2.169-12.341,0-17.418C1110.876,509.11,1101.317,498.839,1090.93,493.83Z" transform="translate(-880.514 -305.734)" fill="#bac5f4"/>
  <path id="Pfad_488" data-name="Pfad 488" d="M1137.823,568.63s-.074-.3-.09-.037c-.169,2.866.623,20.242-.264,23.108-.211.681,2.56-5.03,2.56-5.03Z" transform="translate(-903.248 -341.518)" fill="#bac5f4"/>
  <path id="Pfad_489" data-name="Pfad 489" d="M1076.57,523.38a186.224,186.224,0,0,0,11.512,25.436c4.465,7.917,10.778,14.367,13.1,17.339,7.358,9.416,2.249-13.834-.174-19.582C1098.533,540.682,1087.976,529.08,1076.57,523.38Z" transform="translate(-873.192 -320.018)" fill="#bac5f4"/>
  <path id="Pfad_490" data-name="Pfad 490" d="M1047.39,571.677a257.792,257.792,0,0,1,22.142,17.782c10.641,9.949,12.573,11.148,15.877,12.541,10.456,4.423-3.8-18.753-8.4-22.348C1072.3,575.973,1059.715,571.365,1047.39,571.677Z" transform="translate(-858.775 -343.126)" fill="#bac5f4"/>
  <path id="Pfad_491" data-name="Pfad 491" d="M1129.092,608.383a4.331,4.331,0,0,0-.142-.623c0,1.5,1.583,8.5.871,9.965-.179.348,1.367-2.539,1.367-2.539Z" transform="translate(-898.812 -360.279)" fill="#bac5f4"/>
  <path id="Pfad_492" data-name="Pfad 492" d="M1123.484,627.869s-.179-.385-.174-.317c.053.749,2.053,4.312,1.388,5.009-.153.169,1.23-1.209,1.23-1.209Z" transform="translate(-895.908 -369.743)" fill="#bac5f4"/>
  <path id="Pfad_493" data-name="Pfad 493" d="M1260.673,354.79s-10.377,16.162-14.953,19.487C1245.72,374.277,1249.188,363.531,1260.673,354.79Z" transform="translate(-963.481 -238.656)" fill="#bac5f4"/>
  <path id="Pfad_494" data-name="Pfad 494" d="M1266.146,371s-12.81,11.127-17.1,12.14C1249.05,383.177,1255.247,374.009,1266.146,371Z" transform="translate(-965.053 -246.417)" fill="#bac5f4"/>
  <path id="Pfad_495" data-name="Pfad 495" d="M1255.753,338.92s-4.751,21.218-10.182,26.945C1245.571,365.881,1242.483,353.662,1255.753,338.92Z" transform="translate(-963.263 -231.055)" fill="#bac5f4"/>
  <path id="Pfad_496" data-name="Pfad 496" d="M1260.146,385.72s-15.56,14.779-20.1,18.8c-1.055.95-1.689,1.309-1.979,1.256-.861-.148,1.235-3.969,2.971-6.439C1243.345,396.044,1252.123,386.818,1260.146,385.72Z" transform="translate(-959.77 -253.542)" fill="#bac5f4"/>
  <path id="Pfad_497" data-name="Pfad 497" d="M1229.691,423.044s.095-.069,0,.063c-1.193,1.43-8.445,10.113-9.39,11.755-1.056,1.795,1.014-2.486,1.014-2.486Z" transform="translate(-951.337 -271.443)" fill="#bac5f4"/>
  <path id="Pfad_498" data-name="Pfad 498" d="M1243.168,393.77s.164,0,.111.032a76.076,76.076,0,0,0-6.577,8.947c-1.056,1.789.581-1.583.581-1.583Z" transform="translate(-959.055 -257.355)" fill="#bac5f4"/>
  <path id="Pfad_499" data-name="Pfad 499" d="M1252.135,400.71s-17.392,21.013-22.844,24.94c-6.935,5,.839-7.052,2.713-9.042S1243.943,402.721,1252.135,400.71Z" transform="translate(-954.389 -260.793)" fill="#bac5f4"/>
  <path id="Pfad_500" data-name="Pfad 500" d="M1243.168,393.77s.164,0,.111.032a76.076,76.076,0,0,0-6.577,8.947c-1.056,1.789.581-1.583.581-1.583Z" transform="translate(-959.055 -257.355)" fill="#bac5f4"/>
  <path id="Pfad_501" data-name="Pfad 501" d="M1218,448.481s.1-.079,0,.069c-1.325,1.583-9.353,11.306-10.446,13.122-1.187,1.979,1.2-2.734,1.2-2.734Z" transform="translate(-944.512 -283.687)" fill="#bac5f4"/>
  <path id="Pfad_502" data-name="Pfad 502" d="M1248.78,425.66s-23.2,22.047-29.674,25.863c-8.24,4.851,2.338-9.089,4.751-11.148S1240.219,426.848,1248.78,425.66Z" transform="translate(-949.455 -272.807)" fill="#bac5f4"/>
  <path id="Pfad_503" data-name="Pfad 503" d="M1206.213,475.488s.4-.369.259-.206c-1.473,1.789-10.081,11.148-11.3,13.2-1.325,2.212,1.056-2.692,1.056-2.692Z" transform="translate(-933.659 -296.571)" fill="#bac5f4"/>
  <path id="Pfad_504" data-name="Pfad 504" d="M1238.808,452.39s-25.256,22.168-32,26.349c-8.583,5.278,3.737-10.029,7.917-13.8C1218.983,461.1,1230.02,453.863,1238.808,452.39Z" transform="translate(-943.706 -285.677)" fill="#bac5f4"/>
  <path id="Pfad_505" data-name="Pfad 505" d="M1193.033,503.325s.422-.4.275-.216c-1.583,1.905-10.672,11.913-11.982,14.061-1.43,2.349,1.172-2.834,1.172-2.834Z" transform="translate(-926.494 -309.961)" fill="#bac5f4"/>
  <path id="Pfad_506" data-name="Pfad 506" d="M1226.358,479.57s-25.256,22.195-32,26.349c-8.583,5.278,3.737-10.029,7.917-13.792C1206.533,488.29,1217.575,481.043,1226.358,479.57Z" transform="translate(-937.827 -298.761)" fill="#bac5f4"/>
  <path id="Pfad_507" data-name="Pfad 507" d="M1180.358,530.512s.422-.4.274-.222c-1.583,1.905-10.947,12.267-12.256,14.415-1.43,2.349,1.378-3.341,1.378-3.341Z" transform="translate(-919.786 -323.041)" fill="#bac5f4"/>
  <path id="Pfad_508" data-name="Pfad 508" d="M1218.583,506.34s-27.684,22.073-34.425,26.233c-8.577,5.278,5.859-11.823,10.029-15.565C1198.451,513.17,1209.8,507.813,1218.583,506.34Z" transform="translate(-933.15 -311.645)" fill="#bac5f4"/>
  <path id="Pfad_509" data-name="Pfad 509" d="M1168.144,557.36s.243-.2.069,0c-1.874,2.307-13.2,14.542-14.805,17.1-1.773,2.792,1.584-3.969,1.584-3.969Z" transform="translate(-912.126 -336.069)" fill="#bac5f4"/>
  <path id="Pfad_510" data-name="Pfad 510" d="M1210.09,540.084a240.2,240.2,0,0,1-20.215,13.544c-6.651,3.874-13.233,6.08-16.009,7.305-8.794,3.874,7.39-10.483,11.881-13.613C1190.345,544.122,1201.814,539.889,1210.09,540.084Z" transform="translate(-928.337 -327.831)" fill="#bac5f4"/>
  <path id="Pfad_511" data-name="Pfad 511" d="M1157.733,579.8s.237-.206.063,0c-1.874,2.307-14.072,15.544-15.608,18.131-.364.612,2.222-4.935,2.222-4.935Z" transform="translate(-906.557 -346.868)" fill="#bac5f4"/>
  <path id="Pfad_512" data-name="Pfad 512" d="M1192.479,568.81s-11.612,8.751-22.7,15.307c-7.469,4.391-14.832,6.946-17.946,8.35-9.855,4.434,8.371-11.681,13.417-15.212C1170.406,573.66,1183.253,568.751,1192.479,568.81Z" transform="translate(-912.216 -341.686)" fill="#bac5f4"/>
  <path id="Pfad_513" data-name="Pfad 513" d="M1176.279,612.826a220.808,220.808,0,0,0-22.48,5.125c-11.76,3.552-13.481,3.695-15.977,3.51-7.917-.686,14.552-13.132,19.149-14.119C1161.679,606.349,1170.715,607.727,1176.279,612.826Z" transform="translate(-905.219 -359.98)" fill="#bac5f4"/>
  <path id="Pfad_514" data-name="Pfad 514" d="M1142.482,614.367a6.5,6.5,0,0,1,.491-.427c-1.008,1.177-6.54,5.991-7.194,7.432-.153.338,1.093-2.528,1.093-2.528Z" transform="translate(-902.666 -363.225)" fill="#bac5f4"/>
  <path id="Pfad_515" data-name="Pfad 515" d="M1134.63,631.837s.348-.227.3-.174c-.528.56-3.9,2.549-4.064,3.357-.037.19.248-1.43.248-1.43Z" transform="translate(-899.92 -371.702)" fill="#bac5f4"/>
  <rect id="Rechteck_60" data-name="Rechteck 60" width="190.317" height="328.052" rx="53.44" transform="translate(61.782)" fill="rgba(198,198,255,0.49)"/>
  <rect id="Rechteck_61" data-name="Rechteck 61" width="173.152" height="305.772" rx="35.41" transform="translate(69.983 12.81)" fill="#fff"/>
  <rect id="Rechteck_62" data-name="Rechteck 62" width="95.082" height="15.47" rx="7.735" transform="translate(107.123 5.801)" fill="#e1e6fb"/>
  <rect id="Rechteck_63" data-name="Rechteck 63" width="42.088" height="5.875" rx="2.937" transform="translate(133.897 7.136)" fill="#fff"/>
  <rect id="Rechteck_64" data-name="Rechteck 64" width="145.885" height="43.672" rx="14.61" transform="translate(84.724 52.017)" fill="#f5f5fc"/>
  <circle id="Ellipse_9" data-name="Ellipse 9" cx="15.719" cy="15.719" r="15.719" transform="translate(95.678 57.833)" fill="#678ee5"/>
  <rect id="Rechteck_65" data-name="Rechteck 65" width="88.078" height="6.672" rx="3.336" transform="translate(128.548 59.211)" fill="#678ee5"/>
  <rect id="Rechteck_66" data-name="Rechteck 66" width="69.393" height="6.672" rx="3.336" transform="translate(129.628 70.295)" fill="#678ee5"/>
  <rect id="Rechteck_67" data-name="Rechteck 67" width="21.43" height="6.672" rx="3.336" transform="translate(131.858 81.23)" fill="#678ee5"/>
  <rect id="Rechteck_68" data-name="Rechteck 68" width="145.885" height="43.672" rx="14.61" transform="translate(84.724 161.698)" fill="#f5f5fc"/>
  <circle id="Ellipse_10" data-name="Ellipse 10" cx="15.719" cy="15.719" r="15.719" transform="translate(95.678 167.507)" fill="#678ee5"/>
  <rect id="Rechteck_69" data-name="Rechteck 69" width="88.078" height="6.672" rx="3.336" transform="translate(128.548 169.047)" fill="#678ee5"/>
  <rect id="Rechteck_70" data-name="Rechteck 70" width="69.393" height="6.672" rx="3.336" transform="translate(129.628 179.948)" fill="#678ee5"/>
  <rect id="Rechteck_71" data-name="Rechteck 71" width="21.43" height="6.672" rx="3.336" transform="translate(131.858 192.043)" fill="#678ee5"/>
  <rect id="Rechteck_72" data-name="Rechteck 72" width="145.885" height="43.672" rx="14.61" transform="translate(84.724 214.165)" fill="#f5f5fc"/>
  <circle id="Ellipse_11" data-name="Ellipse 11" cx="15.719" cy="15.719" r="15.719" transform="translate(95.678 219.999)" fill="#678ee5"/>
  <rect id="Rechteck_73" data-name="Rechteck 73" width="88.078" height="6.672" rx="3.336" transform="translate(128.548 221.596)" fill="#678ee5"/>
  <rect id="Rechteck_74" data-name="Rechteck 74" width="69.393" height="6.672" rx="3.336" transform="translate(129.628 232.497)" fill="#678ee5"/>
  <rect id="Rechteck_75" data-name="Rechteck 75" width="21.43" height="6.672" rx="3.336" transform="translate(131.858 244.592)" fill="#678ee5"/>
  <rect id="Rechteck_76" data-name="Rechteck 76" width="145.885" height="43.672" rx="14.61" transform="translate(55.596 110.464)" fill="#f5f5fc"/>
  <rect id="Rechteck_77" data-name="Rechteck 77" width="145.885" height="43.672" rx="14.61" transform="translate(50.196 103.209)" fill="#678ee5"/>
  <circle id="Ellipse_12" data-name="Ellipse 12" cx="15.719" cy="15.719" r="15.719" transform="translate(59.084 108.983)" fill="#fff"/>
  <rect id="Rechteck_78" data-name="Rechteck 78" width="88.078" height="6.672" rx="3.336" transform="translate(92.761 110.455)" fill="#fff"/>
  <rect id="Rechteck_79" data-name="Rechteck 79" width="69.393" height="6.672" rx="3.336" transform="translate(93.54 121.356)" fill="#fff"/>
  <rect id="Rechteck_80" data-name="Rechteck 80" width="21.43" height="6.672" rx="3.336" transform="translate(95.15 133.451)" fill="#fff"/>
  <path id="Pfad_516" data-name="Pfad 516" d="M932.941,891.432a5.59,5.59,0,0,1-5.479-3.811,10.4,10.4,0,0,1,.084-6.492c1.51-4.634,5.727-15.185,8.371-21.952a6.333,6.333,0,0,1,5.853-3.906l143.7-1.583s8.144-.834,8.5,7.126.237,22.169.237,22.169,1.087,5.437-6.534,5.563C1082.647,888.619,955.1,891.015,932.941,891.432Z" transform="translate(-812.981 -479.013)" fill="#bac5f4"/>
  <path id="Pfad_517" data-name="Pfad 517" d="M933.976,880.44a8.324,8.324,0,0,1-3.853-.823c-1.81-.908-3.695-2.734-2.513-6.3,1.5-4.634,6.788-18.357,9.417-25.124a6.281,6.281,0,0,1,5.806-3.911l142.792-1.552s8.091-.834,8.445,7.126.243,22.169.243,22.169,1.056,5.436-6.5,5.563C1082.621,877.643,947.974,880.177,933.976,880.44Z" transform="translate(-813.102 -473.837)" fill="#f5f5fc"/>
  <ellipse id="Ellipse_13" data-name="Ellipse 13" cx="19.514" cy="13.898" rx="19.514" ry="13.898" transform="translate(140.688 374.393) rotate(-0.62)" fill="#fff"/>
  <rect id="Rechteck_81" data-name="Rechteck 81" width="98.724" height="5.437" rx="2.718" transform="translate(178.524 375.654) rotate(-0.62)" fill="#fff"/>
  <rect id="Rechteck_82" data-name="Rechteck 82" width="75.368" height="4.634" rx="2.317" transform="translate(179.142 385.134) rotate(-0.62)" fill="#fff"/>
  <rect id="Rechteck_83" data-name="Rechteck 83" width="29.642" height="3.79" rx="1.895" transform="translate(181.046 396.522) rotate(-0.62)" fill="#fff"/>
  <path id="Pfad_518" data-name="Pfad 518" d="M919.941,863.432a5.589,5.589,0,0,1-5.479-3.811,10.4,10.4,0,0,1,.084-6.492c1.51-4.634,5.727-15.185,8.371-21.952a6.334,6.334,0,0,1,5.854-3.906l143.7-1.583s8.144-.834,8.5,7.126.237,22.168.237,22.168,1.087,5.437-6.534,5.563C1069.647,860.619,942.1,863.015,919.941,863.432Z" transform="translate(-798.959 -465.792)" fill="#bac5f4"/>
  <path id="Pfad_519" data-name="Pfad 519" d="M920.976,852.44a8.322,8.322,0,0,1-3.853-.823c-1.81-.908-3.695-2.734-2.512-6.3,1.5-4.634,6.788-18.358,9.416-25.124a6.281,6.281,0,0,1,5.806-3.911l142.792-1.552s8.091-.834,8.445,7.125.243,22.168.243,22.168,1.056,5.437-6.5,5.563C1069.621,849.643,934.974,852.177,920.976,852.44Z" transform="translate(-799.083 -460.616)" fill="#f5f5fc"/>
  <ellipse id="Ellipse_14" data-name="Ellipse 14" cx="19.514" cy="13.898" rx="19.514" ry="13.898" transform="translate(134.508 359.616) rotate(-0.62)" fill="#fff"/>
  <rect id="Rechteck_84" data-name="Rechteck 84" width="98.724" height="5.437" rx="2.718" transform="translate(172.497 360.876) rotate(-0.62)" fill="#fff"/>
  <rect id="Rechteck_85" data-name="Rechteck 85" width="75.368" height="4.634" rx="2.317" transform="translate(173.048 370.357) rotate(-0.62)" fill="#fff"/>
  <rect id="Rechteck_86" data-name="Rechteck 86" width="29.642" height="3.79" rx="1.895" transform="translate(174.841 381.745) rotate(-0.62)" fill="#fff"/>
  <path id="Pfad_520" data-name="Pfad 520" d="M946.783,839.362a5.347,5.347,0,0,1-5.22-3.811,10.9,10.9,0,0,1,.079-6.487c1.436-4.634,5.447-15.185,7.959-21.952a6.028,6.028,0,0,1,5.579-3.906l136.859-1.488s7.754-.834,8.092,7.131.243,22.169.243,22.169,1.056,5.442-6.223,5.558C1089.369,836.628,967.885,838.955,946.783,839.362Z" transform="translate(-819.649 -454.473)" fill="#bac5f4"/>
  <path id="Pfad_521" data-name="Pfad 521" d="M947.748,828.311a7.5,7.5,0,0,1-3.695-.829c-1.721-.908-3.494-2.729-2.4-6.3,1.425-4.634,6.455-18.358,8.973-25.124a5.969,5.969,0,0,1,5.542-3.9l135.977-1.483s7.706-.834,8.044,7.131.243,22.168.243,22.168,1.056,5.442-6.181,5.558C1089.3,825.609,961.081,828.074,947.748,828.311Z" transform="translate(-819.749 -449.26)" fill="#f5f5fc"/>
  <ellipse id="Ellipse_15" data-name="Ellipse 15" cx="18.585" cy="13.898" rx="18.585" ry="13.898" transform="translate(147.047 346.868) rotate(-0.62)" fill="#fff"/>
  <rect id="Rechteck_87" data-name="Rechteck 87" width="94.016" height="5.437" rx="2.718" transform="translate(183.112 348.153) rotate(-0.62)" fill="#fff"/>
  <rect id="Rechteck_88" data-name="Rechteck 88" width="71.773" height="4.634" rx="2.317" transform="translate(183.397 358.104) rotate(-0.573)" fill="#fff"/>
  <rect id="Rechteck_89" data-name="Rechteck 89" width="28.233" height="3.79" rx="1.895" transform="translate(185.522 369.014) rotate(-0.62)" fill="#fff"/>
  <path id="Pfad_522" data-name="Pfad 522" d="M911.411,814.254a5.342,5.342,0,0,1-5.178-3.864,10.953,10.953,0,0,1,.148-6.492c1.489-4.613,5.611-15.122,8.2-21.857a6.011,6.011,0,0,1,5.621-3.848h136.864s7.764-.744,8.013,7.221,0,22.168,0,22.168.982,5.447-6.281,5.489C1054,813.077,932.519,814.08,911.411,814.254Z" transform="translate(-792.26 -443.369)" fill="#bac5f4"/>
  <path id="Pfad_523" data-name="Pfad 523" d="M912.493,803.25a7.526,7.526,0,0,1-3.663-.866c-1.716-.929-3.468-2.771-2.333-6.334,1.478-4.613,6.661-18.284,9.231-25.019a5.981,5.981,0,0,1,5.584-3.848H1057.3s7.717-.744,7.965,7.221,0,22.168,0,22.168.971,5.447-6.239,5.489C1054.071,802.073,925.826,803.139,912.493,803.25Z" transform="translate(-792.425 -438.17)" fill="#f5f5fc"/>
  <ellipse id="Ellipse_16" data-name="Ellipse 16" cx="18.585" cy="13.898" rx="18.585" ry="13.898" transform="translate(130.594 332.872)" fill="#fff"/>
  <rect id="Rechteck_90" data-name="Rechteck 90" width="94.016" height="5.437" rx="2.718" transform="translate(167.013 334.64)" fill="#fff"/>
  <rect id="Rechteck_91" data-name="Rechteck 91" width="71.773" height="4.634" rx="2.317" transform="translate(167.329 344.104)" fill="#fff"/>
  <rect id="Rechteck_92" data-name="Rechteck 92" width="28.233" height="3.79" rx="1.895" transform="translate(168.789 355.478)" fill="#fff"/>
</svg>
