<svg xmlns="http://www.w3.org/2000/svg" width="666.827" height="379.841" viewBox="0 0 666.827 379.841">
  <g id="bg-3" transform="translate(-0.014 -0.008)">
    <g id="Layer_2" data-name="Layer 2" transform="translate(0.349 0.008)">
      <path id="Pfad_543" data-name="Pfad 543" d="M1594.99,384.593s37.283,129.421-103.317,197.807c-33.254,16.157-106.417-17.8-166-14.431-112.728,6.382-198.16,44.736-253.681,22.075-62.115-25.357-85.049-49.957-94.47-67.215-2.464-4.5-5.837-9.23-8.412-13.532-16.067-26.771-66.74-126.119-9.755-191.294,48.553-55.541,144.094-55.268,191.788-51.148a136.1,136.1,0,0,1,48.957,13.865c29.952,14.905,84.655,41.323,107.74,47.169,43.534,11.038,50.2,9.089,131.279-25.589S1578.853,269.229,1594.99,384.593Z" transform="translate(-932.976 -265.248)" fill="rgba(198,198,255,0.49)"/>
    </g>
    <g id="Layer_3" data-name="Layer 3" transform="translate(79.141 93.982)">
      <path id="Pfad_544" data-name="Pfad 544" d="M1011,479.763s60.59-117.4,130.269-119.615,68.669,77.485,88.553,89.664,40.959,8.856,56.46-17.713,33.1-75.97,66.306-73.718,70.961,105.862,90.885,105.862,56.551-79.04,89.33-77.849c33.941,1.232,57.228,93.582,57.228,93.582l-52.461-.242Z" transform="translate(-1011 -358.306)" fill="#e1e6fb"/>
    </g>
    <g id="Layer_5" data-name="Layer 5" transform="translate(0.014 7.018)">
      <g id="Layer_4" data-name="Layer 4" transform="translate(0 57.632)">
        <path id="Pfad_545" data-name="Pfad 545" d="M949.787,479.327,1150.9,481.9s16.733-1.01,33.9-14.138c13.068-9.977,17.6-17.167,17.6-24.236s-6.544-43.423-70.689-50.492L935.427,389.3s-1.737,6.059-2.615,18.117a99.587,99.587,0,0,0,.444,16.8,181.859,181.859,0,0,0,3.03,19.268C939.982,460.413,945.01,471.531,949.787,479.327Z" transform="translate(-932.644 -328.669)" fill="#678ee5"/>
        <ellipse id="Ellipse_17" data-name="Ellipse 17" cx="38.879" cy="10.603" rx="38.879" ry="10.603" transform="translate(156.652 80.575)" fill="#fff"/>
        <circle id="Ellipse_18" data-name="Ellipse 18" cx="10.603" cy="10.603" r="10.603" transform="translate(30.423 96.732)" fill="#fff"/>
        <circle id="Ellipse_19" data-name="Ellipse 19" cx="11.108" cy="11.108" r="11.108" transform="translate(60.718 96.732)" fill="#fff"/>
        <circle id="Ellipse_20" data-name="Ellipse 20" cx="11.108" cy="11.108" r="11.108" transform="translate(60.718 96.732)" fill="#fff"/>
        <circle id="Ellipse_21" data-name="Ellipse 21" cx="11.108" cy="11.108" r="11.108" transform="translate(93.033 96.732)" fill="#fff"/>
        <circle id="Ellipse_22" data-name="Ellipse 22" cx="16.016" cy="16.016" r="16.016" transform="translate(340.574 38.828)" fill="#fff"/>
        <circle id="Ellipse_23" data-name="Ellipse 23" cx="12.795" cy="12.795" r="12.795" transform="translate(326.639 43.251)" fill="#fff"/>
        <circle id="Ellipse_24" data-name="Ellipse 24" cx="18.621" cy="18.621" r="18.621" transform="translate(529.121)" fill="#fff"/>
        <circle id="Ellipse_25" data-name="Ellipse 25" cx="11.33" cy="11.33" r="11.33" transform="translate(556.266 9.28)" fill="#fff"/>
        <circle id="Ellipse_26" data-name="Ellipse 26" cx="11.33" cy="11.33" r="11.33" transform="translate(517.155 11.189)" fill="#fff"/>
        <circle id="Ellipse_27" data-name="Ellipse 27" cx="11.108" cy="11.108" r="11.108" transform="translate(124.338 96.732)" fill="#fff"/>
        <path id="Pfad_546" data-name="Pfad 546" d="M954.095,489l635.128.485s-21.823,66.811-37.071,79.666,14.077,74.577-98.54,34.718-174.8,1.262-207.673,6.422-119.656,47.573-154.849,27-18.753-45-84.483-46.3-62.176-66.862-62.176-66.862L954.095,489" transform="translate(-932.528 -327.688)" fill="rgba(240,240,252,0.49)"/>
      </g>
      <path id="Pfad_547" data-name="Pfad 547" d="M656.535,224.308l-635.128-.444L16.58,213.25l642.631.111Z" transform="translate(0.149 -4.92)" fill="#fff"/>
      <path id="Pfad_548" data-name="Pfad 548" d="M110.839,216.522H104.9L104.83,8.253l5.978-1.3Z" transform="translate(1.017 -6.95)" fill="#fff"/>
      <path id="Pfad_549" data-name="Pfad 549" d="M281.458,218.761h-5.938L275.47,20.54l5.877,2.757Z" transform="translate(2.696 -6.816)" fill="#fff"/>
      <path id="Pfad_550" data-name="Pfad 550" d="M448.558,220.771H442.61l.01-160.251,5.988-2.04Z" transform="translate(4.341 -6.443)" fill="#fff"/>
      <path id="Pfad_551" data-name="Pfad 551" d="M607.118,218.757H601.18l.05-197.807,6.009,2.494Z" transform="translate(5.901 -6.812)" fill="#fff"/>
    </g>
    <g id="Layer_6" data-name="Layer 6" transform="translate(422.123 203.331)">
      <path id="Pfad_552" data-name="Pfad 552" d="M418.41,276.76h14.865l-.04-11.28,144.6-.02v11.9h13.088V247.02l-172.511.6Z" transform="translate(-418.006 -200.901)" fill="#678ee5"/>
      <path id="Pfad_553" data-name="Pfad 553" d="M418.774,242.435,591,242.042V234.69l-172.612.384Z" transform="translate(-418.006 -201.022)" fill="#678ee5"/>
      <path id="Pfad_554" data-name="Pfad 554" d="M418.394,231.7l172.228-.384V223.96l-172.612.384Z" transform="translate(-418.01 -201.128)" fill="#678ee5"/>
      <path id="Pfad_555" data-name="Pfad 555" d="M418.774,220.585,591,220.2V212.84l-172.612.394Z" transform="translate(-418.006 -201.237)" fill="#678ee5"/>
      <path id="Pfad_556" data-name="Pfad 556" d="M418.774,209.085,591,208.7V201.35l-172.612.384Z" transform="translate(-418.006 -201.35)" fill="#678ee5"/>
    </g>
  </g>
</svg>
